<svg width="16" height="20" viewBox="0 0 16 20" fill="none" xmlns="http://www.w3.org/2000/svg">
<path fill-rule="evenodd" clip-rule="evenodd" d="M2 0C0.89543 0 0 0.895432 0 2V18C0 19.1046 0.895431 20 2 20H14C15.1046 20 16 19.1046 16 18V2C16 0.89543 15.1046 0 14 0H2ZM2 2L14 2V18H2V2ZM5 5C4.44772 5 4 5.44772 4 6C4 6.55228 4.44772 7 5 7H7C7.55228 7 8 6.55228 8 6C8 5.44772 7.55228 5 7 5H5ZM4 10C4 9.44771 4.44772 9 5 9H9C9.55228 9 10 9.44771 10 10C10 10.5523 9.55228 11 9 11H5C4.44772 11 4 10.5523 4 10ZM5 13C4.44772 13 4 13.4477 4 14C4 14.5523 4.44772 15 5 15H11C11.5523 15 12 14.5523 12 14C12 13.4477 11.5523 13 11 13H5Z" fill="#2D5BFF"/>
</svg>
