<svg width="15" height="20" viewBox="0 0 15 20" fill="none" xmlns="http://www.w3.org/2000/svg">
<path fill-rule="evenodd" clip-rule="evenodd" d="M7.62012 0C3.75412 0 0.620117 3.13401 0.620117 7V13C0.620117 16.866 3.75412 20 7.62012 20C11.4861 20 14.6201 16.866 14.6201 13V7C14.6201 3.13401 11.4861 0 7.62012 0ZM2.62012 7C2.62012 4.23858 4.85869 2 7.62012 2C10.3815 2 12.6201 4.23858 12.6201 7V13C12.6201 15.7614 10.3815 18 7.62012 18C4.85869 18 2.62012 15.7614 2.62012 13V7ZM8.62012 5C8.62012 4.44772 8.1724 4 7.62012 4C7.06783 4 6.62012 4.44772 6.62012 5V6.5V8C6.62012 8.55228 7.06783 9 7.62012 9C8.1724 9 8.62012 8.55228 8.62012 8V6.5V5Z" fill="#2D5BFF"/>
</svg>
