<svg width="16" height="16" viewBox="0 0 16 16" fill="none" xmlns="http://www.w3.org/2000/svg">
<path fill-rule="evenodd" clip-rule="evenodd" d="M8.77778 1.77778C8.77778 1.34822 8.42955 1 8 1C7.57045 1 7.22222 1.34822 7.22222 1.77778V2.4C7.22222 2.82955 7.57045 3.17778 8 3.17778C8.42955 3.17778 8.77778 2.82955 8.77778 2.4V1.77778ZM3.57219 2.47225C3.26845 2.16851 2.77599 2.16851 2.47225 2.47225C2.16851 2.77599 2.16851 3.26845 2.47225 3.57219L3.40558 4.50553C3.70932 4.80927 4.20179 4.80927 4.50553 4.50553C4.80927 4.20179 4.80927 3.70932 4.50553 3.40558L3.57219 2.47225ZM13.5278 3.57219C13.8315 3.26845 13.8315 2.77599 13.5278 2.47225C13.224 2.16851 12.7315 2.16851 12.4278 2.47225L11.4945 3.40558C11.1907 3.70932 11.1907 4.20179 11.4945 4.50553C11.7982 4.80927 12.2907 4.80927 12.5944 4.50553L13.5278 3.57219ZM1.77778 7.22222C1.34822 7.22222 1 7.57045 1 8C1 8.42955 1.34822 8.77778 1.77778 8.77778H2.4C2.82955 8.77778 3.17778 8.42955 3.17778 8C3.17778 7.57045 2.82955 7.22222 2.4 7.22222H1.77778ZM13.6 7.22222C13.1704 7.22222 12.8222 7.57045 12.8222 8C12.8222 8.42955 13.1704 8.77778 13.6 8.77778H14.2222C14.6518 8.77778 15 8.42955 15 8C15 7.57045 14.6518 7.22222 14.2222 7.22222H13.6ZM4.50553 12.5944C4.80927 12.2907 4.80927 11.7982 4.50553 11.4945C4.20179 11.1907 3.70932 11.1907 3.40558 11.4945L2.47225 12.4278C2.16851 12.7315 2.16851 13.224 2.47225 13.5278C2.77599 13.8315 3.26845 13.8315 3.57219 13.5278L4.50553 12.5944ZM12.5944 11.4945C12.2907 11.1907 11.7982 11.1907 11.4945 11.4945C11.1907 11.7982 11.1907 12.2907 11.4945 12.5944L12.4278 13.5278C12.7315 13.8315 13.224 13.8315 13.5278 13.5278C13.8315 13.224 13.8315 12.7315 13.5278 12.4278L12.5944 11.4945ZM8.77778 13.6C8.77778 13.1704 8.42955 12.8222 8 12.8222C7.57045 12.8222 7.22222 13.1704 7.22222 13.6V14.2222C7.22222 14.6518 7.57045 15 8 15C8.42955 15 8.77778 14.6518 8.77778 14.2222V13.6ZM6.01235 8C6.01235 6.90225 6.90225 6.01235 8 6.01235C9.09775 6.01235 9.98765 6.90225 9.98765 8C9.98765 9.09775 9.09775 9.98765 8 9.98765C6.90225 9.98765 6.01235 9.09775 6.01235 8ZM8 4.45679C6.04314 4.45679 4.45679 6.04314 4.45679 8C4.45679 9.95686 6.04314 11.5432 8 11.5432C9.95686 11.5432 11.5432 9.95686 11.5432 8C11.5432 6.04314 9.95686 4.45679 8 4.45679Z" fill="#F7D523"/>
</svg>
