<svg width="16" height="16" viewBox="0 0 16 16" fill="none" xmlns="http://www.w3.org/2000/svg">
<path fill-rule="evenodd" clip-rule="evenodd" d="M6.05584 2.43503C6.5537 2.8798 6.86742 3.61705 6.79716 4.3616C6.78227 4.51931 6.77465 4.67918 6.77465 4.84093C6.77465 7.75021 9.26699 10.1634 12.411 10.1634C13.0367 10.1634 13.5723 10.5154 13.8312 10.9906C13.964 11.2345 14.0402 11.5424 13.9781 11.8693C13.9137 12.2088 13.7135 12.4949 13.427 12.6933C12.2381 13.5165 10.7767 14 9.20155 14C5.25541 14 2.00003 10.9532 2.00003 7.12732C2.00003 5.337 2.71797 3.70951 3.88508 2.49118C4.1922 2.17058 4.59192 1.98536 5.03212 2.00091C5.44954 2.01565 5.80052 2.20694 6.05584 2.43503ZM4.95082 3.54656C4.95082 3.54655 4.95114 3.54665 4.95176 3.54689L4.95082 3.54656ZM5.00005 3.57967C5.00247 3.58172 5.00497 3.5839 5.00755 3.58621C5.06594 3.63837 5.13389 3.72931 5.18246 3.85196C5.23024 3.97263 5.24983 4.10033 5.23879 4.21733C5.21939 4.42291 5.2095 4.63092 5.2095 4.84093C5.2095 8.55814 8.28255 11.5399 12.0765 11.7063C11.2364 12.1778 10.2542 12.4497 9.20155 12.4497C6.05752 12.4497 3.56519 10.0366 3.56519 7.12732C3.56519 5.76814 4.10413 4.52506 5.00005 3.57967Z" fill="#F9DE51"/>
</svg>
