<svg width="24" height="24" viewBox="0 0 24 24" fill="none" xmlns="http://www.w3.org/2000/svg">
<rect width="24" height="24" rx="12" fill="white"/>
<path fill-rule="evenodd" clip-rule="evenodd" d="M8.17677 7.19848C7.90316 6.92914 7.46462 6.93461 7.19727 7.2107C6.92991 7.48679 6.93497 7.92894 7.20858 8.19827L11.0705 12L7.20858 15.8017C6.93497 16.0711 6.92991 16.5132 7.19727 16.7893C7.46462 17.0654 7.90316 17.0709 8.17676 16.8015L12.0625 12.9764L15.8233 16.6786C16.0969 16.9479 16.5354 16.9424 16.8028 16.6664C17.0701 16.3903 17.0651 15.9481 16.7915 15.6788L13.0544 12L16.7915 8.32122C17.0651 8.05188 17.0701 7.60973 16.8028 7.33364C16.5354 7.05755 16.0969 7.05208 15.8233 7.32142L12.0625 11.0236L8.17677 7.19848Z" fill="#8A8A8A"/>
</svg>
