<svg width="32" height="30" viewBox="0 0 32 30" fill="none" xmlns="http://www.w3.org/2000/svg">
<g filter="url(#filter0_dii_3792_347)">
<path fill-rule="evenodd" clip-rule="evenodd" d="M15.8043 6C11.2515 6 7.60945 9.58042 7.60945 13.9378C7.60945 15.202 7.91382 16.3952 8.45561 17.455C8.69645 17.926 8.57834 18.4028 8.50431 18.6348C8.41569 18.9125 8.27159 19.192 8.12616 19.4417C7.85153 19.9131 7.46738 20.4517 7.11884 20.9403C7.09616 20.9721 7.07364 21.0037 7.0513 21.035C6.899 21.2487 6.75535 21.4513 6.62486 21.6411C6.9085 21.5256 7.21855 21.3902 7.54863 21.244C7.60799 21.2178 7.66801 21.1911 7.72855 21.1643C8.29593 20.9125 8.90832 20.6407 9.44145 20.4536C9.73719 20.3498 10.0502 20.2566 10.3473 20.2108C10.6105 20.1702 11.0335 20.1369 11.4342 20.3304C11.4844 20.3547 11.5357 20.3795 11.5879 20.4048C12.1885 20.6955 12.9222 21.0506 13.6762 21.3446C14.518 21.6728 15.2661 21.8756 15.8043 21.8756C20.3572 21.8756 23.9992 18.2952 23.9992 13.9378C23.9992 9.58042 20.3572 6 15.8043 6ZM5.45172 21.9996C5.45172 21.9996 5.45577 21.9994 5.46275 22.0001C5.45503 22.0001 5.45172 21.9996 5.45172 21.9996ZM5.60945 13.9378C5.60945 8.42277 10.2008 4 15.8043 4C21.4079 4 25.9992 8.42277 25.9992 13.9378C25.9992 19.4529 21.4079 23.8756 15.8043 23.8756C14.8746 23.8756 13.8357 23.5534 12.9497 23.2079C12.1178 22.8836 11.3154 22.495 10.7221 22.2077C10.7059 22.1998 10.6898 22.192 10.6739 22.1843C10.6672 22.1852 10.66 22.1863 10.6521 22.1875C10.5315 22.2061 10.351 22.2539 10.1039 22.3407C9.65127 22.4996 9.11495 22.7374 8.52777 22.9977C8.47175 23.0226 8.41526 23.0476 8.35834 23.0728C7.73575 23.3485 7.0504 23.6478 6.46586 23.8244C6.17604 23.912 5.84993 23.9889 5.53395 23.9989C5.24188 24.0081 4.74754 23.966 4.36471 23.5776C3.92511 23.1315 3.98048 22.5684 4.03993 22.2958C4.10525 21.9964 4.24362 21.704 4.37602 21.4612C4.64637 20.9655 5.05541 20.3894 5.42266 19.8742L5.46582 19.8136C5.83726 19.2926 6.17157 18.8237 6.39798 18.435C6.4734 18.3055 6.52494 18.2047 6.55838 18.1298C5.94954 16.8557 5.60945 15.4346 5.60945 13.9378ZM6.60808 17.991C6.60808 17.991 6.60763 17.9975 6.60336 18.0124C6.60538 17.9988 6.60808 17.991 6.60808 17.991Z" fill="url(#paint0_linear_3792_347)"/>
<path d="M7.60945 13.9378C7.60945 9.58042 11.2515 6 15.8043 6C20.3572 6 23.9992 9.58042 23.9992 13.9378C23.9992 18.2952 20.3572 21.8756 15.8043 21.8756C15.2661 21.8756 14.518 21.6728 13.6762 21.3446C12.9222 21.0506 12.1885 20.6955 11.5879 20.4048L11.4342 20.3304C11.0335 20.1369 10.6105 20.1702 10.3473 20.2108C10.0502 20.2566 9.73719 20.3498 9.44145 20.4536C8.90832 20.6407 8.29593 20.9125 7.72855 21.1643L7.54863 21.244C7.21855 21.3902 6.9085 21.5256 6.62486 21.6411C6.75535 21.4513 6.899 21.2487 7.0513 21.035L7.11884 20.9403C7.46738 20.4517 7.85153 19.9131 8.12616 19.4417C8.27159 19.192 8.41569 18.9125 8.50431 18.6348C8.57834 18.4028 8.69645 17.926 8.45561 17.455C7.91382 16.3952 7.60945 15.202 7.60945 13.9378Z" fill="url(#paint1_linear_3792_347)"/>
</g>
<defs>
<filter id="filter0_dii_3792_347" x="0" y="0" width="31.999" height="30" filterUnits="userSpaceOnUse" color-interpolation-filters="sRGB">
<feFlood flood-opacity="0" result="BackgroundImageFix"/>
<feColorMatrix in="SourceAlpha" type="matrix" values="0 0 0 0 0 0 0 0 0 0 0 0 0 0 0 0 0 0 127 0" result="hardAlpha"/>
<feOffset dx="1" dy="1"/>
<feGaussianBlur stdDeviation="2.5"/>
<feComposite in2="hardAlpha" operator="out"/>
<feColorMatrix type="matrix" values="0 0 0 0 0.945098 0 0 0 0 0.466667 0 0 0 0 0.2 0 0 0 0.35 0"/>
<feBlend mode="normal" in2="BackgroundImageFix" result="effect1_dropShadow_3792_347"/>
<feBlend mode="normal" in="SourceGraphic" in2="effect1_dropShadow_3792_347" result="shape"/>
<feColorMatrix in="SourceAlpha" type="matrix" values="0 0 0 0 0 0 0 0 0 0 0 0 0 0 0 0 0 0 127 0" result="hardAlpha"/>
<feOffset dx="-2" dy="-2"/>
<feGaussianBlur stdDeviation="2"/>
<feComposite in2="hardAlpha" operator="arithmetic" k2="-1" k3="1"/>
<feColorMatrix type="matrix" values="0 0 0 0 0.920833 0 0 0 0 0.43985 0 0 0 0 0.168819 0 0 0 1 0"/>
<feBlend mode="normal" in2="shape" result="effect2_innerShadow_3792_347"/>
<feColorMatrix in="SourceAlpha" type="matrix" values="0 0 0 0 0 0 0 0 0 0 0 0 0 0 0 0 0 0 127 0" result="hardAlpha"/>
<feOffset/>
<feGaussianBlur stdDeviation="0.5"/>
<feComposite in2="hardAlpha" operator="arithmetic" k2="-1" k3="1"/>
<feColorMatrix type="matrix" values="0 0 0 0 0.983333 0 0 0 0 0.883689 0 0 0 0 0.827639 0 0 0 0.5 0"/>
<feBlend mode="normal" in2="effect2_innerShadow_3792_347" result="effect3_innerShadow_3792_347"/>
</filter>
<linearGradient id="paint0_linear_3792_347" x1="5" y1="1.5" x2="21" y2="24.5" gradientUnits="userSpaceOnUse">
<stop stop-color="#FBC8AB"/>
<stop offset="1" stop-color="#FF964A"/>
</linearGradient>
<linearGradient id="paint1_linear_3792_347" x1="5" y1="1.5" x2="21" y2="24.5" gradientUnits="userSpaceOnUse">
<stop stop-color="#FBC8AB"/>
<stop offset="1" stop-color="#FF964A"/>
</linearGradient>
</defs>
</svg>
